<svg xmlns="http://www.w3.org/2000/svg" width="1200" height="620" viewBox="0 0 1200 620">
<defs><marker id="a" markerWidth="10" markerHeight="10" refX="8" refY="3" orient="auto"><path d="M0,0 L0,6 L9,3 z" fill="#555"/></marker></defs>
<rect width="100%" height="100%" fill="#fff"/>
<text x="60" y="58" font-size="30" font-weight="700" font-family="Arial, Noto Sans JP, sans-serif" fill="#111">Proxied と DNS only</text>
<text x="60" y="91" font-size="16" font-family="Arial, Noto Sans JP, sans-serif" fill="#555">オレンジ雲のON/OFFでCloudflareが通信経路に入るかが変わる</text>
<line x1="220" y1="200.0" x2="340" y2="200.0" stroke="#555" stroke-width="2" marker-end="url(#a)"/>
<line x1="560" y1="200.0" x2="720" y2="200.0" stroke="#555" stroke-width="2" marker-end="url(#a)"/>
<line x1="220" y1="400.0" x2="340" y2="400.0" stroke="#555" stroke-width="2" marker-end="url(#a)"/>
<line x1="560" y1="400.0" x2="720" y2="400.0" stroke="#555" stroke-width="2" marker-end="url(#a)"/>
<rect x="60" y="150" width="160" height="100" rx="18" fill="#F3F0FF" stroke="#7755BB" stroke-width="2"/>
<text x="78" y="183" font-size="18" font-weight="700" font-family="Arial, Noto Sans JP, sans-serif" fill="#111">Client</text>
<text x="78" y="209" font-size="14" font-family="Arial, Noto Sans JP, sans-serif" fill="#444">Proxied</text>
<rect x="340" y="125" width="220" height="150" rx="18" fill="#FFF4E8" stroke="#F48120" stroke-width="2"/>
<text x="358" y="158" font-size="18" font-weight="700" font-family="Arial, Noto Sans JP, sans-serif" fill="#111">Cloudflare Edge</text>
<text x="358" y="184" font-size="14" font-family="Arial, Noto Sans JP, sans-serif" fill="#444">WAF / Cache</text>
<text x="358" y="206" font-size="14" font-family="Arial, Noto Sans JP, sans-serif" fill="#444">Workers</text>
<rect x="720" y="150" width="200" height="100" rx="18" fill="#F5F5F5" stroke="#666" stroke-width="2"/>
<text x="738" y="183" font-size="18" font-weight="700" font-family="Arial, Noto Sans JP, sans-serif" fill="#111">Origin</text>
<text x="738" y="209" font-size="14" font-family="Arial, Noto Sans JP, sans-serif" fill="#444">IP hidden</text>
<rect x="60" y="350" width="160" height="100" rx="18" fill="#F3F0FF" stroke="#7755BB" stroke-width="2"/>
<text x="78" y="383" font-size="18" font-weight="700" font-family="Arial, Noto Sans JP, sans-serif" fill="#111">Client</text>
<text x="78" y="409" font-size="14" font-family="Arial, Noto Sans JP, sans-serif" fill="#444">DNS only</text>
<rect x="340" y="350" width="220" height="100" rx="18" fill="#FFF" stroke="#999" stroke-width="2"/>
<text x="358" y="383" font-size="18" font-weight="700" font-family="Arial, Noto Sans JP, sans-serif" fill="#111">DNS answer only</text>
<text x="358" y="409" font-size="14" font-family="Arial, Noto Sans JP, sans-serif" fill="#444">Origin IP returned</text>
<rect x="720" y="350" width="200" height="100" rx="18" fill="#F5F5F5" stroke="#666" stroke-width="2"/>
<text x="738" y="383" font-size="18" font-weight="700" font-family="Arial, Noto Sans JP, sans-serif" fill="#111">Origin</text>
<text x="738" y="409" font-size="14" font-family="Arial, Noto Sans JP, sans-serif" fill="#444">Direct access</text>
<rect x="60" y="532" width="1080" height="48" rx="12" fill="#F7F7F7"/>
<text x="80" y="561" font-size="14" font-family="Arial, Noto Sans JP, sans-serif" fill="#333">WAF・Cache・Workersを期待しているhostnameがDNS onlyになっていないかは、障害調査の最初の確認項目。</text>
</svg>