<svg xmlns="http://www.w3.org/2000/svg" width="1200" height="620" viewBox="0 0 1200 620">
<defs><marker id="arrow" markerWidth="10" markerHeight="10" refX="8" refY="3" orient="auto" markerUnits="strokeWidth"><path d="M0,0 L0,6 L9,3 z" fill="#555"/></marker></defs>
<rect width="100%" height="100%" fill="#ffffff"/>
<text x="60" y="58" font-size="30" font-weight="700" font-family="Arial, Noto Sans JP, sans-serif" fill="#111">Ruleset Engineの責務分離</text>
<text x="60" y="91" font-size="16" font-family="Arial, Noto Sans JP, sans-serif" fill="#555">Redirect / Rewrite / Header / Origin / Cache を目的別に使い分ける</text>
<line x1="230" y1="270.0" x2="290" y2="180.0" stroke="#555" stroke-width="2" marker-end="url(#arrow)"/>
<line x1="230" y1="270.0" x2="290" y2="325.0" stroke="#555" stroke-width="2" marker-end="url(#arrow)"/>
<line x1="480" y1="180.0" x2="550" y2="180.0" stroke="#555" stroke-width="2" marker-end="url(#arrow)"/>
<line x1="480" y1="325.0" x2="550" y2="325.0" stroke="#555" stroke-width="2" marker-end="url(#arrow)"/>
<line x1="740" y1="180.0" x2="850" y2="265.0" stroke="#555" stroke-width="2" marker-end="url(#arrow)"/>
<line x1="740" y1="325.0" x2="850" y2="265.0" stroke="#555" stroke-width="2" marker-end="url(#arrow)"/>
<rect x="60" y="210" width="170" height="120" rx="18" fill="#F3F0FF" stroke="#7755BB" stroke-width="2"/>
<text x="80" y="244" font-size="19" font-weight="700" font-family="Arial, Noto Sans JP, sans-serif" fill="#111">Request</text>
<text x="80" y="271" font-size="14" font-family="Arial, Noto Sans JP, sans-serif" fill="#444">Host</text>
<text x="80" y="293" font-size="14" font-family="Arial, Noto Sans JP, sans-serif" fill="#444">Path</text>
<text x="80" y="315" font-size="14" font-family="Arial, Noto Sans JP, sans-serif" fill="#444">Headers</text>
<rect x="290" y="125" width="190" height="110" rx="18" fill="#EEF5FF" stroke="#3B6FD8" stroke-width="2"/>
<text x="310" y="159" font-size="19" font-weight="700" font-family="Arial, Noto Sans JP, sans-serif" fill="#111">Redirect</text>
<text x="310" y="186" font-size="14" font-family="Arial, Noto Sans JP, sans-serif" fill="#444">3xxで返す</text>
<rect x="290" y="270" width="190" height="110" rx="18" fill="#EEF5FF" stroke="#3B6FD8" stroke-width="2"/>
<text x="310" y="304" font-size="19" font-weight="700" font-family="Arial, Noto Sans JP, sans-serif" fill="#111">Transform</text>
<text x="310" y="331" font-size="14" font-family="Arial, Noto Sans JP, sans-serif" fill="#444">URL / Header</text>
<rect x="550" y="125" width="190" height="110" rx="18" fill="#EEF5FF" stroke="#3B6FD8" stroke-width="2"/>
<text x="570" y="159" font-size="19" font-weight="700" font-family="Arial, Noto Sans JP, sans-serif" fill="#111">Origin Rules</text>
<text x="570" y="186" font-size="14" font-family="Arial, Noto Sans JP, sans-serif" fill="#444">Backend選択</text>
<rect x="550" y="270" width="190" height="110" rx="18" fill="#EEF5FF" stroke="#3B6FD8" stroke-width="2"/>
<text x="570" y="304" font-size="19" font-weight="700" font-family="Arial, Noto Sans JP, sans-serif" fill="#111">Cache Rules</text>
<text x="570" y="331" font-size="14" font-family="Arial, Noto Sans JP, sans-serif" fill="#444">TTL / Bypass</text>
<rect x="850" y="190" width="240" height="150" rx="18" fill="#F5F5F5" stroke="#666666" stroke-width="2"/>
<text x="870" y="224" font-size="19" font-weight="700" font-family="Arial, Noto Sans JP, sans-serif" fill="#111">Destination</text>
<text x="870" y="251" font-size="14" font-family="Arial, Noto Sans JP, sans-serif" fill="#444">Edge response</text>
<text x="870" y="273" font-size="14" font-family="Arial, Noto Sans JP, sans-serif" fill="#444">Worker</text>
<text x="870" y="295" font-size="14" font-family="Arial, Noto Sans JP, sans-serif" fill="#444">Origin</text>
<rect x="60" y="534" width="1080" height="48" rx="12" fill="#F7F7F7"/>
<text x="80" y="563" font-size="14" font-family="Arial, Noto Sans JP, sans-serif" fill="#333">「何でもWorkerで書く」より、宣言的Rulesで表現できる処理はRulesへ寄せた方が運用コストを下げやすい。</text>
</svg>